<svg xmlns="http://www.w3.org/2000/svg" xmlns:xlink="http://www.w3.org/1999/xlink" width="500" zoomAndPan="magnify" viewBox="0 0 375 374.999991" height="500" preserveAspectRatio="xMidYMid meet" version="1.2"><defs><clipPath id="019dd37558"><path d="M 60 61 L 314 61 L 314 315 L 60 315 Z M 60 61 "/></clipPath><clipPath id="f0eec37a23"><path d="M 59.5625 134.5625 L 59.5625 240.4375 C 59.5625 281.859375 93.140625 315.4375 134.5625 315.4375 L 240.4375 315.4375 C 281.859375 315.4375 315.4375 281.859375 315.4375 240.4375 L 315.4375 134.5625 C 315.4375 93.140625 281.859375 59.5625 240.4375 59.5625 L 134.5625 59.5625 C 93.140625 59.5625 59.5625 93.140625 59.5625 134.5625 Z M 59.5625 134.5625 "/></clipPath></defs><g id="dd5c7029ce"><rect x="0" width="375" y="0" height="374.999991" style="fill:#ffffff;fill-opacity:1;stroke:none;"/><rect x="0" width="375" y="0" height="374.999991" style="fill:#ffffff;fill-opacity:1;stroke:none;"/><rect x="0" width="375" y="0" height="374.999991" style="fill:#c0c0c0;fill-opacity:1;stroke:none;"/><g clip-rule="nonzero" clip-path="url(#019dd37558)"><g clip-rule="nonzero" clip-path="url(#f0eec37a23)"><path style=" stroke:none;fill-rule:nonzero;fill:#000000;fill-opacity:1;" d="M 204.359375 187.847656 L 310.089844 82.121094 C 314.875 77.335938 314.875 69.570312 310.089844 64.789062 C 305.300781 60 297.546875 60 292.757812 64.789062 L 187.03125 170.515625 L 81.304688 64.789062 C 76.515625 60 68.757812 60 63.972656 64.789062 C 59.183594 69.570312 59.183594 77.335938 63.972656 82.121094 L 169.699219 187.847656 L 63.972656 293.574219 C 59.183594 298.359375 59.183594 306.121094 63.972656 310.90625 C 66.363281 313.300781 69.5 314.496094 72.636719 314.496094 C 75.773438 314.496094 78.910156 313.300781 81.304688 310.90625 L 187.03125 205.179688 L 292.757812 310.90625 C 295.152344 313.300781 298.285156 314.496094 301.421875 314.496094 C 304.558594 314.496094 307.695312 313.300781 310.089844 310.90625 C 314.875 306.121094 314.875 298.359375 310.089844 293.574219 Z M 204.359375 187.847656 "/></g></g></g></svg>