<?xml version="1.0" encoding="UTF-8"?>
<svg version="1.1" xmlns="http://www.w3.org/2000/svg" width="231" height="274">
<path d="M0 0 C5.28 0 10.56 0 16 0 C16 2.64 16 5.28 16 8 C18.64 8 21.28 8 24 8 C24 5.36 24 2.72 24 0 C29.28 0 34.56 0 40 0 C40 2.64 40 5.28 40 8 C42.64 8 45.28 8 48 8 C48 5.36 48 2.72 48 0 C53.28 0 58.56 0 64 0 C64 2.64 64 5.28 64 8 C66.64 8 69.28 8 72 8 C72 5.36 72 2.72 72 0 C77.28 0 82.56 0 88 0 C88 2.64 88 5.28 88 8 C90.64 8 93.28 8 96 8 C96 5.36 96 2.72 96 0 C101.28 0 106.56 0 112 0 C112 2.64 112 5.28 112 8 C114.64 8 117.28 8 120 8 C120 5.36 120 2.72 120 0 C125.28 0 130.56 0 136 0 C136 2.64 136 5.28 136 8 C138.64 8 141.28 8 144 8 C144 5.36 144 2.72 144 0 C149.28 0 154.56 0 160 0 C160 2.64 160 5.28 160 8 C162.64 8 165.28 8 168 8 C168 5.36 168 2.72 168 0 C170.64 0 173.28 0 176 0 C176 2.64 176 5.28 176 8 C181.28 8 186.56 8 192 8 C192 10.64 192 13.28 192 16 C194.64 16 197.28 16 200 16 C200 89.92 200 163.84 200 240 C197.36 240 194.72 240 192 240 C192 242.64 192 245.28 192 248 C189.36 248 186.72 248 184 248 C184 250.64 184 253.28 184 256 C123.28 256 62.56 256 0 256 C0 253.36 0 250.72 0 248 C-2.64 248 -5.28 248 -8 248 C-8 245.36 -8 242.72 -8 240 C-10.64 240 -13.28 240 -16 240 C-16 166.08 -16 92.16 -16 16 C-13.36 16 -10.72 16 -8 16 C-8 13.36 -8 10.72 -8 8 C-5.36 8 -2.72 8 0 8 C0 5.36 0 2.72 0 0 Z " fill="#FFFFFF" transform="translate(25,6)"/>
<path d="M0 0 C5.28 0 10.56 0 16 0 C16 2.64 16 5.28 16 8 C18.64 8 21.28 8 24 8 C24 5.36 24 2.72 24 0 C29.28 0 34.56 0 40 0 C40 2.64 40 5.28 40 8 C42.64 8 45.28 8 48 8 C48 5.36 48 2.72 48 0 C53.28 0 58.56 0 64 0 C64 2.64 64 5.28 64 8 C66.64 8 69.28 8 72 8 C72 5.36 72 2.72 72 0 C77.28 0 82.56 0 88 0 C88 2.64 88 5.28 88 8 C90.64 8 93.28 8 96 8 C96 5.36 96 2.72 96 0 C101.28 0 106.56 0 112 0 C112 2.64 112 5.28 112 8 C114.64 8 117.28 8 120 8 C120 5.36 120 2.72 120 0 C125.28 0 130.56 0 136 0 C136 2.64 136 5.28 136 8 C138.64 8 141.28 8 144 8 C144 5.36 144 2.72 144 0 C149.28 0 154.56 0 160 0 C160 2.64 160 5.28 160 8 C162.64 8 165.28 8 168 8 C168 5.36 168 2.72 168 0 C170.64 0 173.28 0 176 0 C176 2.64 176 5.28 176 8 C181.28 8 186.56 8 192 8 C192 10.64 192 13.28 192 16 C194.64 16 197.28 16 200 16 C200 89.92 200 163.84 200 240 C197.36 240 194.72 240 192 240 C192 242.64 192 245.28 192 248 C189.36 248 186.72 248 184 248 C184 250.64 184 253.28 184 256 C123.28 256 62.56 256 0 256 C0 253.36 0 250.72 0 248 C55.44 248 110.88 248 168 248 C168 245.36 168 242.72 168 240 C170.64 240 173.28 240 176 240 C176 171.36 176 102.72 176 32 C173.36 32 170.72 32 168 32 C168 26.72 168 21.44 168 16 C162.72 16 157.44 16 152 16 C152 21.28 152 26.56 152 32 C149.36 32 146.72 32 144 32 C144 26.72 144 21.44 144 16 C138.72 16 133.44 16 128 16 C128 21.28 128 26.56 128 32 C125.36 32 122.72 32 120 32 C120 26.72 120 21.44 120 16 C114.72 16 109.44 16 104 16 C104 21.28 104 26.56 104 32 C101.36 32 98.72 32 96 32 C96 26.72 96 21.44 96 16 C90.72 16 85.44 16 80 16 C80 21.28 80 26.56 80 32 C77.36 32 74.72 32 72 32 C72 26.72 72 21.44 72 16 C66.72 16 61.44 16 56 16 C56 21.28 56 26.56 56 32 C53.36 32 50.72 32 48 32 C48 26.72 48 21.44 48 16 C42.72 16 37.44 16 32 16 C32 21.28 32 26.56 32 32 C29.36 32 26.72 32 24 32 C24 26.72 24 21.44 24 16 C18.72 16 13.44 16 8 16 C8 13.36 8 10.72 8 8 C5.36 8 2.72 8 0 8 C0 5.36 0 2.72 0 0 Z " fill="#808080" transform="translate(25,6)"/>
<path d="M0 0 C13.2 0 26.4 0 40 0 C40 23.76 40 47.52 40 72 C18.88 72 -2.24 72 -24 72 C-24 69.36 -24 66.72 -24 64 C-21.36 64 -18.72 64 -16 64 C-16 58.72 -16 53.44 -16 48 C-10.72 48 -5.44 48 0 48 C0 45.36 0 42.72 0 40 C-5.28 40 -10.56 40 -16 40 C-16 37.36 -16 34.72 -16 32 C-10.72 32 -5.44 32 0 32 C0 21.44 0 10.88 0 0 Z " fill="#000000" transform="translate(57,46)"/>
<path d="M0 0 C2.64 0 5.28 0 8 0 C8 73.92 8 147.84 8 224 C10.64 224 13.28 224 16 224 C16 226.64 16 229.28 16 232 C13.36 232 10.72 232 8 232 C8 234.64 8 237.28 8 240 C-52.72 240 -113.44 240 -176 240 C-176 237.36 -176 234.72 -176 232 C-120.56 232 -65.12 232 -8 232 C-8 229.36 -8 226.72 -8 224 C-5.36 224 -2.72 224 0 224 C0 150.08 0 76.16 0 0 Z " fill="#000000" transform="translate(201,22)"/>
<path d="M0 0 C2.64 0 5.28 0 8 0 C8 21.12 8 42.24 8 64 C10.64 64 13.28 64 16 64 C16 66.64 16 69.28 16 72 C8.08 72 0.16 72 -8 72 C-8 69.36 -8 66.72 -8 64 C-5.36 64 -2.72 64 0 64 C0 61.36 0 58.72 0 56 C-13.2 56 -26.4 56 -40 56 C-40 61.28 -40 66.56 -40 72 C-47.92 72 -55.84 72 -64 72 C-64 69.36 -64 66.72 -64 64 C-61.36 64 -58.72 64 -56 64 C-56 61.36 -56 58.72 -56 56 C-53.36 56 -50.72 56 -48 56 C-48 53.36 -48 50.72 -48 48 C-45.36 48 -42.72 48 -40 48 C-40 45.36 -40 42.72 -40 40 C-37.36 40 -34.72 40 -32 40 C-32 37.36 -32 34.72 -32 32 C-29.36 32 -26.72 32 -24 32 C-24 29.36 -24 26.72 -24 24 C-21.36 24 -18.72 24 -16 24 C-16 21.36 -16 18.72 -16 16 C-13.36 16 -10.72 16 -8 16 C-8 13.36 -8 10.72 -8 8 C-5.36 8 -2.72 8 0 8 C0 5.36 0 2.72 0 0 Z " fill="#FF0000" transform="translate(169,158)"/>
<path d="M0 0 C2.64 0 5.28 0 8 0 C8 68.64 8 137.28 8 208 C5.36 208 2.72 208 0 208 C0 205.36 0 202.72 0 200 C-7.92 200 -15.84 200 -24 200 C-24 197.36 -24 194.72 -24 192 C-16.08 192 -8.16 192 0 192 C0 128.64 0 65.28 0 0 Z " fill="#C0C0C0" transform="translate(193,38)"/>
<path d="M0 0 C2.64 0 5.28 0 8 0 C8 73.92 8 147.84 8 224 C5.36 224 2.72 224 0 224 C0 150.08 0 76.16 0 0 Z " fill="#000000" transform="translate(217,22)"/>
<path d="M0 0 C2.64 0 5.28 0 8 0 C8 73.92 8 147.84 8 224 C5.36 224 2.72 224 0 224 C0 150.08 0 76.16 0 0 Z " fill="#C0C0C0" transform="translate(209,22)"/>
<path d="M0 0 C2.64 0 5.28 0 8 0 C8 73.92 8 147.84 8 224 C5.36 224 2.72 224 0 224 C0 150.08 0 76.16 0 0 Z " fill="#808080" transform="translate(9,22)"/>
<path d="M0 0 C2.64 0 5.28 0 8 0 C8 2.64 8 5.28 8 8 C10.64 8 13.28 8 16 8 C16 10.64 16 13.28 16 16 C-44.72 16 -105.44 16 -168 16 C-168 13.36 -168 10.72 -168 8 C-112.56 8 -57.12 8 0 8 C0 5.36 0 2.72 0 0 Z " fill="#000000" transform="translate(193,246)"/>
<path d="M0 0 C58.08 0 116.16 0 176 0 C176 2.64 176 5.28 176 8 C117.92 8 59.84 8 0 8 C0 5.36 0 2.72 0 0 Z " fill="#C0C0C0" transform="translate(17,246)"/>
<path d="M0 0 C47.52 0 95.04 0 144 0 C144 2.64 144 5.28 144 8 C96.48 8 48.96 8 0 8 C0 5.36 0 2.72 0 0 Z " fill="#0000BF" transform="translate(33,142)"/>
<path d="M0 0 C47.52 0 95.04 0 144 0 C144 2.64 144 5.28 144 8 C96.48 8 48.96 8 0 8 C0 5.36 0 2.72 0 0 Z " fill="#0000BF" transform="translate(33,126)"/>
<path d="M0 0 C7.92 0 15.84 0 24 0 C24 10.56 24 21.12 24 32 C18.72 32 13.44 32 8 32 C8 34.64 8 37.28 8 40 C13.28 40 18.56 40 24 40 C24 42.64 24 45.28 24 48 C18.72 48 13.44 48 8 48 C8 53.28 8 58.56 8 64 C5.36 64 2.72 64 0 64 C0 42.88 0 21.76 0 0 Z " fill="#808080" transform="translate(33,46)"/>
<path d="M0 0 C5.28 0 10.56 0 16 0 C16 2.64 16 5.28 16 8 C18.64 8 21.28 8 24 8 C24 5.36 24 2.72 24 0 C26.64 0 29.28 0 32 0 C32 2.64 32 5.28 32 8 C37.28 8 42.56 8 48 8 C48 10.64 48 13.28 48 16 C42.72 16 37.44 16 32 16 C32 21.28 32 26.56 32 32 C29.36 32 26.72 32 24 32 C24 26.72 24 21.44 24 16 C18.72 16 13.44 16 8 16 C8 21.28 8 26.56 8 32 C5.36 32 2.72 32 0 32 C0 26.72 0 21.44 0 16 C-5.28 16 -10.56 16 -16 16 C-16 13.36 -16 10.72 -16 8 C-10.72 8 -5.44 8 0 8 C0 5.36 0 2.72 0 0 Z " fill="#808080" transform="translate(169,6)"/>
<path d="M0 0 C36.96 0 73.92 0 112 0 C112 2.64 112 5.28 112 8 C75.04 8 38.08 8 0 8 C0 5.36 0 2.72 0 0 Z " fill="#0000BF" transform="translate(33,158)"/>
<path d="M0 0 C31.68 0 63.36 0 96 0 C96 2.64 96 5.28 96 8 C64.32 8 32.64 8 0 8 C0 5.36 0 2.72 0 0 Z " fill="#0000BF" transform="translate(33,174)"/>
<path d="M0 0 C15.84 0 31.68 0 48 0 C48 2.64 48 5.28 48 8 C34.8 8 21.6 8 8 8 C8 13.28 8 18.56 8 24 C0.08 24 -7.84 24 -16 24 C-16 21.36 -16 18.72 -16 16 C-13.36 16 -10.72 16 -8 16 C-8 13.36 -8 10.72 -8 8 C-5.36 8 -2.72 8 0 8 C0 5.36 0 2.72 0 0 Z " fill="#C0C0C0" transform="translate(121,206)"/>
<path d="M0 0 C26.4 0 52.8 0 80 0 C80 2.64 80 5.28 80 8 C53.6 8 27.2 8 0 8 C0 5.36 0 2.72 0 0 Z " fill="#0000BF" transform="translate(33,190)"/>
<path d="M0 0 C7.92 0 15.84 0 24 0 C24 7.92 24 15.84 24 24 C16.08 24 8.16 24 0 24 C0 16.08 0 8.16 0 0 Z " fill="#FFFF00" transform="translate(65,70)"/>
<path d="M0 0 C5.28 0 10.56 0 16 0 C16 2.64 16 5.28 16 8 C18.64 8 21.28 8 24 8 C24 5.36 24 2.72 24 0 C29.28 0 34.56 0 40 0 C40 2.64 40 5.28 40 8 C37.36 8 34.72 8 32 8 C32 15.92 32 23.84 32 32 C29.36 32 26.72 32 24 32 C24 26.72 24 21.44 24 16 C18.72 16 13.44 16 8 16 C8 13.36 8 10.72 8 8 C5.36 8 2.72 8 0 8 C0 5.36 0 2.72 0 0 Z " fill="#808080" transform="translate(25,6)"/>
<path d="M0 0 C21.12 0 42.24 0 64 0 C64 2.64 64 5.28 64 8 C42.88 8 21.76 8 0 8 C0 5.36 0 2.72 0 0 Z " fill="#0000BF" transform="translate(33,206)"/>
<path d="M0 0 C21.12 0 42.24 0 64 0 C64 2.64 64 5.28 64 8 C42.88 8 21.76 8 0 8 C0 5.36 0 2.72 0 0 Z " fill="#0000BF" transform="translate(113,110)"/>
<path d="M0 0 C21.12 0 42.24 0 64 0 C64 2.64 64 5.28 64 8 C42.88 8 21.76 8 0 8 C0 5.36 0 2.72 0 0 Z " fill="#0000BF" transform="translate(113,94)"/>
<path d="M0 0 C21.12 0 42.24 0 64 0 C64 2.64 64 5.28 64 8 C42.88 8 21.76 8 0 8 C0 5.36 0 2.72 0 0 Z " fill="#0000BF" transform="translate(113,78)"/>
<path d="M0 0 C2.64 0 5.28 0 8 0 C8 18.48 8 36.96 8 56 C5.36 56 2.72 56 0 56 C0 37.52 0 19.04 0 0 Z " fill="#C0C0C0" transform="translate(177,166)"/>
<path d="M0 0 C15.84 0 31.68 0 48 0 C48 2.64 48 5.28 48 8 C32.16 8 16.32 8 0 8 C0 5.36 0 2.72 0 0 Z " fill="#0000BF" transform="translate(33,222)"/>
<path d="M0 0 C7.92 0 15.84 0 24 0 C24 5.28 24 10.56 24 16 C16.08 16 8.16 16 0 16 C0 10.72 0 5.44 0 0 Z " fill="#0000FF" transform="translate(65,54)"/>
<path d="M0 0 C5.28 0 10.56 0 16 0 C16 7.92 16 15.84 16 24 C10.72 24 5.44 24 0 24 C0 16.08 0 8.16 0 0 Z " fill="#FFFFFF" transform="translate(41,54)"/>
<path d="M0 0 C2.64 0 5.28 0 8 0 C8 2.64 8 5.28 8 8 C13.28 8 18.56 8 24 8 C24 10.64 24 13.28 24 16 C18.72 16 13.44 16 8 16 C8 21.28 8 26.56 8 32 C5.36 32 2.72 32 0 32 C0 21.44 0 10.88 0 0 Z " fill="#BFBFBF" transform="translate(193,6)"/>
<path d="M0 0 C2.64 0 5.28 0 8 0 C8 2.64 8 5.28 8 8 C10.64 8 13.28 8 16 8 C16 10.64 16 13.28 16 16 C8.08 16 0.16 16 -8 16 C-8 13.36 -8 10.72 -8 8 C-5.36 8 -2.72 8 0 8 C0 5.36 0 2.72 0 0 Z " fill="#FF0000" transform="translate(113,214)"/>
<path d="M0 0 C2.64 0 5.28 0 8 0 C8 5.28 8 10.56 8 16 C0.08 16 -7.84 16 -16 16 C-16 13.36 -16 10.72 -16 8 C-10.72 8 -5.44 8 0 8 C0 5.36 0 2.72 0 0 Z " fill="#FFFFFF" transform="translate(161,182)"/>
<path d="M0 0 C5.28 0 10.56 0 16 0 C16 2.64 16 5.28 16 8 C13.36 8 10.72 8 8 8 C8 10.64 8 13.28 8 16 C2.72 16 -2.56 16 -8 16 C-8 13.36 -8 10.72 -8 8 C-5.36 8 -2.72 8 0 8 C0 5.36 0 2.72 0 0 Z " fill="#C0C0C0" transform="translate(153,174)"/>
<path d="M0 0 C5.28 0 10.56 0 16 0 C16 2.64 16 5.28 16 8 C18.64 8 21.28 8 24 8 C24 10.64 24 13.28 24 16 C18.72 16 13.44 16 8 16 C8 13.36 8 10.72 8 8 C5.36 8 2.72 8 0 8 C0 5.36 0 2.72 0 0 Z " fill="#808080" transform="translate(169,6)"/>
<path d="M0 0 C7.92 0 15.84 0 24 0 C24 2.64 24 5.28 24 8 C16.08 8 8.16 8 0 8 C0 5.36 0 2.72 0 0 Z " fill="#C0C0C0" transform="translate(113,230)"/>
<path d="M0 0 C7.92 0 15.84 0 24 0 C24 2.64 24 5.28 24 8 C16.08 8 8.16 8 0 8 C0 5.36 0 2.72 0 0 Z " fill="#FFFFFF" transform="translate(65,102)"/>
<path d="M0 0 C5.28 0 10.56 0 16 0 C16 2.64 16 5.28 16 8 C10.72 8 5.44 8 0 8 C0 5.36 0 2.72 0 0 Z " fill="#FF0000" transform="translate(41,102)"/>
<path d="M0 0 C5.28 0 10.56 0 16 0 C16 2.64 16 5.28 16 8 C10.72 8 5.44 8 0 8 C0 5.36 0 2.72 0 0 Z " fill="#FFFFFF" transform="translate(41,86)"/>
<path d="M0 0 C2.64 0 5.28 0 8 0 C8 5.28 8 10.56 8 16 C5.36 16 2.72 16 0 16 C0 10.72 0 5.44 0 0 Z " fill="#808080" transform="translate(193,22)"/>
<path d="M0 0 C2.64 0 5.28 0 8 0 C8 5.28 8 10.56 8 16 C5.36 16 2.72 16 0 16 C0 10.72 0 5.44 0 0 Z " fill="#000000" transform="translate(169,22)"/>
<path d="M0 0 C2.64 0 5.28 0 8 0 C8 5.28 8 10.56 8 16 C5.36 16 2.72 16 0 16 C0 10.72 0 5.44 0 0 Z " fill="#000000" transform="translate(145,22)"/>
<path d="M0 0 C2.64 0 5.28 0 8 0 C8 5.28 8 10.56 8 16 C5.36 16 2.72 16 0 16 C0 10.72 0 5.44 0 0 Z " fill="#000000" transform="translate(121,22)"/>
<path d="M0 0 C2.64 0 5.28 0 8 0 C8 5.28 8 10.56 8 16 C5.36 16 2.72 16 0 16 C0 10.72 0 5.44 0 0 Z " fill="#000000" transform="translate(97,22)"/>
<path d="M0 0 C2.64 0 5.28 0 8 0 C8 5.28 8 10.56 8 16 C5.36 16 2.72 16 0 16 C0 10.72 0 5.44 0 0 Z " fill="#000000" transform="translate(73,22)"/>
<path d="M0 0 C2.64 0 5.28 0 8 0 C8 5.28 8 10.56 8 16 C5.36 16 2.72 16 0 16 C0 10.72 0 5.44 0 0 Z " fill="#000000" transform="translate(49,22)"/>
<path d="M0 0 C2.64 0 5.28 0 8 0 C8 5.28 8 10.56 8 16 C5.36 16 2.72 16 0 16 C0 10.72 0 5.44 0 0 Z " fill="#000000" transform="translate(25,22)"/>
<path d="M0 0 C5.28 0 10.56 0 16 0 C16 2.64 16 5.28 16 8 C10.72 8 5.44 8 0 8 C0 5.36 0 2.72 0 0 Z " fill="#FFFFFF" transform="translate(17,14)"/>
<path d="M0 0 C5.28 0 10.56 0 16 0 C16 2.64 16 5.28 16 8 C10.72 8 5.44 8 0 8 C0 5.36 0 2.72 0 0 Z " fill="#000000" transform="translate(169,6)"/>
<path d="M0 0 C5.28 0 10.56 0 16 0 C16 2.64 16 5.28 16 8 C10.72 8 5.44 8 0 8 C0 5.36 0 2.72 0 0 Z " fill="#000000" transform="translate(145,6)"/>
<path d="M0 0 C5.28 0 10.56 0 16 0 C16 2.64 16 5.28 16 8 C10.72 8 5.44 8 0 8 C0 5.36 0 2.72 0 0 Z " fill="#000000" transform="translate(121,6)"/>
<path d="M0 0 C5.28 0 10.56 0 16 0 C16 2.64 16 5.28 16 8 C10.72 8 5.44 8 0 8 C0 5.36 0 2.72 0 0 Z " fill="#000000" transform="translate(97,6)"/>
<path d="M0 0 C5.28 0 10.56 0 16 0 C16 2.64 16 5.28 16 8 C10.72 8 5.44 8 0 8 C0 5.36 0 2.72 0 0 Z " fill="#000000" transform="translate(73,6)"/>
<path d="M0 0 C5.28 0 10.56 0 16 0 C16 2.64 16 5.28 16 8 C10.72 8 5.44 8 0 8 C0 5.36 0 2.72 0 0 Z " fill="#000000" transform="translate(49,6)"/>
<path d="M0 0 C5.28 0 10.56 0 16 0 C16 2.64 16 5.28 16 8 C10.72 8 5.44 8 0 8 C0 5.36 0 2.72 0 0 Z " fill="#000000" transform="translate(25,6)"/>
<path d="M0 0 C2.64 0 5.28 0 8 0 C8 2.64 8 5.28 8 8 C5.36 8 2.72 8 0 8 C0 5.36 0 2.72 0 0 Z " fill="#000000" transform="translate(209,246)"/>
<path d="M0 0 C2.64 0 5.28 0 8 0 C8 2.64 8 5.28 8 8 C5.36 8 2.72 8 0 8 C0 5.36 0 2.72 0 0 Z " fill="#C0C0C0" transform="translate(201,246)"/>
<path d="M0 0 C2.64 0 5.28 0 8 0 C8 2.64 8 5.28 8 8 C5.36 8 2.72 8 0 8 C0 5.36 0 2.72 0 0 Z " fill="#808080" transform="translate(17,246)"/>
<path d="M0 0 C2.64 0 5.28 0 8 0 C8 2.64 8 5.28 8 8 C5.36 8 2.72 8 0 8 C0 5.36 0 2.72 0 0 Z " fill="#C0C0C0" transform="translate(121,214)"/>
<path d="M0 0 C2.64 0 5.28 0 8 0 C8 2.64 8 5.28 8 8 C5.36 8 2.72 8 0 8 C0 5.36 0 2.72 0 0 Z " fill="#FF0000" transform="translate(121,206)"/>
<path d="M0 0 C2.64 0 5.28 0 8 0 C8 2.64 8 5.28 8 8 C5.36 8 2.72 8 0 8 C0 5.36 0 2.72 0 0 Z " fill="#C0C0C0" transform="translate(145,190)"/>
<path d="M0 0 C2.64 0 5.28 0 8 0 C8 2.64 8 5.28 8 8 C5.36 8 2.72 8 0 8 C0 5.36 0 2.72 0 0 Z " fill="#FF0000" transform="translate(145,182)"/>
<path d="M0 0 C2.64 0 5.28 0 8 0 C8 2.64 8 5.28 8 8 C5.36 8 2.72 8 0 8 C0 5.36 0 2.72 0 0 Z " fill="#FF0000" transform="translate(153,174)"/>
<path d="M0 0 C2.64 0 5.28 0 8 0 C8 2.64 8 5.28 8 8 C5.36 8 2.72 8 0 8 C0 5.36 0 2.72 0 0 Z " fill="#000000" transform="translate(209,14)"/>
<path d="M0 0 C2.64 0 5.28 0 8 0 C8 2.64 8 5.28 8 8 C5.36 8 2.72 8 0 8 C0 5.36 0 2.72 0 0 Z " fill="#FFFFFF" transform="translate(169,14)"/>
<path d="M0 0 C2.64 0 5.28 0 8 0 C8 2.64 8 5.28 8 8 C5.36 8 2.72 8 0 8 C0 5.36 0 2.72 0 0 Z " fill="#FFFFFF" transform="translate(145,14)"/>
<path d="M0 0 C2.64 0 5.28 0 8 0 C8 2.64 8 5.28 8 8 C5.36 8 2.72 8 0 8 C0 5.36 0 2.72 0 0 Z " fill="#FFFFFF" transform="translate(121,14)"/>
<path d="M0 0 C2.64 0 5.28 0 8 0 C8 2.64 8 5.28 8 8 C5.36 8 2.72 8 0 8 C0 5.36 0 2.72 0 0 Z " fill="#FFFFFF" transform="translate(97,14)"/>
<path d="M0 0 C2.64 0 5.28 0 8 0 C8 2.64 8 5.28 8 8 C5.36 8 2.72 8 0 8 C0 5.36 0 2.72 0 0 Z " fill="#FFFFFF" transform="translate(73,14)"/>
<path d="M0 0 C2.64 0 5.28 0 8 0 C8 2.64 8 5.28 8 8 C5.36 8 2.72 8 0 8 C0 5.36 0 2.72 0 0 Z " fill="#FFFFFF" transform="translate(49,14)"/>
<path d="M0 0 C2.64 0 5.28 0 8 0 C8 2.64 8 5.28 8 8 C5.36 8 2.72 8 0 8 C0 5.36 0 2.72 0 0 Z " fill="#808080" transform="translate(17,14)"/>
<path d="M0 0 C2.64 0 5.28 0 8 0 C8 2.64 8 5.28 8 8 C5.36 8 2.72 8 0 8 C0 5.36 0 2.72 0 0 Z " fill="#000000" transform="translate(193,6)"/>
</svg>
