<?xml version="1.0" encoding="UTF-8"?>
<svg version="1.1" xmlns="http://www.w3.org/2000/svg" width="269" height="274">
<path d="M0 0 C31.68 0 63.36 0 96 0 C96 2.64 96 5.28 96 8 C101.28 8 106.56 8 112 8 C112 10.64 112 13.28 112 16 C117.28 16 122.56 16 128 16 C128 18.64 128 21.28 128 24 C130.64 24 133.28 24 136 24 C136 26.64 136 29.28 136 32 C138.64 32 141.28 32 144 32 C144 34.64 144 37.28 144 40 C146.64 40 149.28 40 152 40 C152 42.64 152 45.28 152 48 C154.64 48 157.28 48 160 48 C160 53.28 160 58.56 160 64 C162.64 64 165.28 64 168 64 C168 69.28 168 74.56 168 80 C170.64 80 173.28 80 176 80 C176 101.12 176 122.24 176 144 C173.36 144 170.72 144 168 144 C168 149.28 168 154.56 168 160 C165.36 160 162.72 160 160 160 C160 165.28 160 170.56 160 176 C157.36 176 154.72 176 152 176 C152 178.64 152 181.28 152 184 C149.36 184 146.72 184 144 184 C144 191.92 144 199.84 144 208 C138.72 208 133.44 208 128 208 C128 210.64 128 213.28 128 216 C122.72 216 117.44 216 112 216 C112 218.64 112 221.28 112 224 C106.72 224 101.44 224 96 224 C96 226.64 96 229.28 96 232 C90.72 232 85.44 232 80 232 C80 234.64 80 237.28 80 240 C74.72 240 69.44 240 64 240 C64 242.64 64 245.28 64 248 C58.72 248 53.44 248 48 248 C48 250.64 48 253.28 48 256 C42.72 256 37.44 256 32 256 C32 253.36 32 250.72 32 248 C26.72 248 21.44 248 16 248 C16 245.36 16 242.72 16 240 C10.72 240 5.44 240 0 240 C0 237.36 0 234.72 0 232 C-5.28 232 -10.56 232 -16 232 C-16 229.36 -16 226.72 -16 224 C-21.28 224 -26.56 224 -32 224 C-32 221.36 -32 218.72 -32 216 C-37.28 216 -42.56 216 -48 216 C-48 213.36 -48 210.72 -48 208 C-53.28 208 -58.56 208 -64 208 C-64 205.36 -64 202.72 -64 200 C-69.28 200 -74.56 200 -80 200 C-80 176.24 -80 152.48 -80 128 C-74.72 128 -69.44 128 -64 128 C-64 125.36 -64 122.72 -64 120 C-58.72 120 -53.44 120 -48 120 C-48 106.8 -48 93.6 -48 80 C-45.36 80 -42.72 80 -40 80 C-40 74.72 -40 69.44 -40 64 C-37.36 64 -34.72 64 -32 64 C-32 48.16 -32 32.32 -32 16 C-26.72 16 -21.44 16 -16 16 C-16 13.36 -16 10.72 -16 8 C-10.72 8 -5.44 8 0 8 C0 5.36 0 2.72 0 0 Z " fill="#008000" transform="translate(88,10)"/>
<path d="M0 0 C2.64 0 5.28 0 8 0 C8 10.56 8 21.12 8 32 C13.28 32 18.56 32 24 32 C24 34.64 24 37.28 24 40 C26.64 40 29.28 40 32 40 C32 32.08 32 24.16 32 16 C37.28 16 42.56 16 48 16 C48 18.64 48 21.28 48 24 C53.28 24 58.56 24 64 24 C64 26.64 64 29.28 64 32 C71.92 32 79.84 32 88 32 C88 63.68 88 95.36 88 128 C90.64 128 93.28 128 96 128 C96 93.68 96 59.36 96 24 C98.64 24 101.28 24 104 24 C104 55.68 104 87.36 104 120 C106.64 120 109.28 120 112 120 C112 85.68 112 51.36 112 16 C114.64 16 117.28 16 120 16 C120 47.68 120 79.36 120 112 C122.64 112 125.28 112 128 112 C128 106.72 128 101.44 128 96 C135.92 96 143.84 96 152 96 C152 103.92 152 111.84 152 120 C146.72 120 141.44 120 136 120 C136 122.64 136 125.28 136 128 C130.72 128 125.44 128 120 128 C120 130.64 120 133.28 120 136 C114.72 136 109.44 136 104 136 C104 138.64 104 141.28 104 144 C98.72 144 93.44 144 88 144 C88 146.64 88 149.28 88 152 C82.72 152 77.44 152 72 152 C72 154.64 72 157.28 72 160 C69.36 160 66.72 160 64 160 C64 178.48 64 196.96 64 216 C56.08 216 48.16 216 40 216 C40 213.36 40 210.72 40 208 C34.72 208 29.44 208 24 208 C24 205.36 24 202.72 24 200 C18.72 200 13.44 200 8 200 C8 197.36 8 194.72 8 192 C2.72 192 -2.56 192 -8 192 C-8 189.36 -8 186.72 -8 184 C-13.28 184 -18.56 184 -24 184 C-24 181.36 -24 178.72 -24 176 C-29.28 176 -34.56 176 -40 176 C-40 170.72 -40 165.44 -40 160 C-42.64 160 -45.28 160 -48 160 C-48 141.52 -48 123.04 -48 104 C-45.36 104 -42.72 104 -40 104 C-40 106.64 -40 109.28 -40 112 C-34.72 112 -29.44 112 -24 112 C-24 117.28 -24 122.56 -24 128 C-21.36 128 -18.72 128 -16 128 C-16 133.28 -16 138.56 -16 144 C-13.36 144 -10.72 144 -8 144 C-8 149.28 -8 154.56 -8 160 C-2.72 160 2.56 160 8 160 C8 162.64 8 165.28 8 168 C13.28 168 18.56 168 24 168 C24 165.36 24 162.72 24 160 C21.36 160 18.72 160 16 160 C16 144.16 16 128.32 16 112 C13.36 112 10.72 112 8 112 C8 125.2 8 138.4 8 152 C5.36 152 2.72 152 0 152 C0 101.84 0 51.68 0 0 Z " fill="#FFFFFF" transform="translate(64,42)"/>
<path d="M0 0 C31.68 0 63.36 0 96 0 C96 2.64 96 5.28 96 8 C101.28 8 106.56 8 112 8 C112 10.64 112 13.28 112 16 C104.08 16 96.16 16 88 16 C88 18.64 88 21.28 88 24 C82.72 24 77.44 24 72 24 C72 26.64 72 29.28 72 32 C77.28 32 82.56 32 88 32 C88 34.64 88 37.28 88 40 C93.28 40 98.56 40 104 40 C104 42.64 104 45.28 104 48 C98.72 48 93.44 48 88 48 C88 82.32 88 116.64 88 152 C85.36 152 82.72 152 80 152 C80 120.32 80 88.64 80 56 C77.36 56 74.72 56 72 56 C72 90.32 72 124.64 72 160 C69.36 160 66.72 160 64 160 C64 128.32 64 96.64 64 64 C56.08 64 48.16 64 40 64 C40 61.36 40 58.72 40 56 C34.72 56 29.44 56 24 56 C24 53.36 24 50.72 24 48 C18.72 48 13.44 48 8 48 C8 55.92 8 63.84 8 72 C5.36 72 2.72 72 0 72 C0 69.36 0 66.72 0 64 C-5.28 64 -10.56 64 -16 64 C-16 53.44 -16 42.88 -16 32 C-18.64 32 -21.28 32 -24 32 C-24 82.16 -24 132.32 -24 184 C-21.36 184 -18.72 184 -16 184 C-16 170.8 -16 157.6 -16 144 C-13.36 144 -10.72 144 -8 144 C-8 159.84 -8 175.68 -8 192 C-5.36 192 -2.72 192 0 192 C0 194.64 0 197.28 0 200 C-5.28 200 -10.56 200 -16 200 C-16 197.36 -16 194.72 -16 192 C-21.28 192 -26.56 192 -32 192 C-32 186.72 -32 181.44 -32 176 C-34.64 176 -37.28 176 -40 176 C-40 170.72 -40 165.44 -40 160 C-42.64 160 -45.28 160 -48 160 C-48 154.72 -48 149.44 -48 144 C-53.28 144 -58.56 144 -64 144 C-64 141.36 -64 138.72 -64 136 C-66.64 136 -69.28 136 -72 136 C-72 154.48 -72 172.96 -72 192 C-69.36 192 -66.72 192 -64 192 C-64 194.64 -64 197.28 -64 200 C-69.28 200 -74.56 200 -80 200 C-80 176.24 -80 152.48 -80 128 C-74.72 128 -69.44 128 -64 128 C-64 125.36 -64 122.72 -64 120 C-58.72 120 -53.44 120 -48 120 C-48 106.8 -48 93.6 -48 80 C-45.36 80 -42.72 80 -40 80 C-40 74.72 -40 69.44 -40 64 C-37.36 64 -34.72 64 -32 64 C-32 48.16 -32 32.32 -32 16 C-26.72 16 -21.44 16 -16 16 C-16 13.36 -16 10.72 -16 8 C-10.72 8 -5.44 8 0 8 C0 5.36 0 2.72 0 0 Z " fill="#808080" transform="translate(88,10)"/>
<path d="M0 0 C5.28 0 10.56 0 16 0 C16 2.64 16 5.28 16 8 C13.36 8 10.72 8 8 8 C8 26.48 8 44.96 8 64 C10.64 64 13.28 64 16 64 C16 66.64 16 69.28 16 72 C10.72 72 5.44 72 0 72 C0 74.64 0 77.28 0 80 C-5.28 80 -10.56 80 -16 80 C-16 82.64 -16 85.28 -16 88 C-21.28 88 -26.56 88 -32 88 C-32 90.64 -32 93.28 -32 96 C-37.28 96 -42.56 96 -48 96 C-48 98.64 -48 101.28 -48 104 C-53.28 104 -58.56 104 -64 104 C-64 106.64 -64 109.28 -64 112 C-69.28 112 -74.56 112 -80 112 C-80 114.64 -80 117.28 -80 120 C-85.28 120 -90.56 120 -96 120 C-96 117.36 -96 114.72 -96 112 C-93.36 112 -90.72 112 -88 112 C-88 93.52 -88 75.04 -88 56 C-85.36 56 -82.72 56 -80 56 C-80 53.36 -80 50.72 -80 48 C-74.72 48 -69.44 48 -64 48 C-64 45.36 -64 42.72 -64 40 C-58.72 40 -53.44 40 -48 40 C-48 37.36 -48 34.72 -48 32 C-42.72 32 -37.44 32 -32 32 C-32 29.36 -32 26.72 -32 24 C-26.72 24 -21.44 24 -16 24 C-16 21.36 -16 18.72 -16 16 C-10.72 16 -5.44 16 0 16 C0 10.72 0 5.44 0 0 Z " fill="#808080" transform="translate(216,146)"/>
<path d="M0 0 C2.64 0 5.28 0 8 0 C8 2.64 8 5.28 8 8 C13.28 8 18.56 8 24 8 C24 13.28 24 18.56 24 24 C26.64 24 29.28 24 32 24 C32 29.28 32 34.56 32 40 C34.64 40 37.28 40 40 40 C40 45.28 40 50.56 40 56 C45.28 56 50.56 56 56 56 C56 58.64 56 61.28 56 64 C63.92 64 71.84 64 80 64 C80 61.36 80 58.72 80 56 C90.56 56 101.12 56 112 56 C112 74.48 112 92.96 112 112 C104.08 112 96.16 112 88 112 C88 109.36 88 106.72 88 104 C82.72 104 77.44 104 72 104 C72 101.36 72 98.72 72 96 C66.72 96 61.44 96 56 96 C56 93.36 56 90.72 56 88 C50.72 88 45.44 88 40 88 C40 85.36 40 82.72 40 80 C34.72 80 29.44 80 24 80 C24 77.36 24 74.72 24 72 C18.72 72 13.44 72 8 72 C8 66.72 8 61.44 8 56 C5.36 56 2.72 56 0 56 C0 37.52 0 19.04 0 0 Z " fill="#C0C0C0" transform="translate(16,146)"/>
<path d="M0 0 C2.64 0 5.28 0 8 0 C8 5.28 8 10.56 8 16 C10.64 16 13.28 16 16 16 C16 21.28 16 26.56 16 32 C18.64 32 21.28 32 24 32 C24 53.12 24 74.24 24 96 C21.36 96 18.72 96 16 96 C16 101.28 16 106.56 16 112 C13.36 112 10.72 112 8 112 C8 117.28 8 122.56 8 128 C5.36 128 2.72 128 0 128 C0 130.64 0 133.28 0 136 C-2.64 136 -5.28 136 -8 136 C-8 141.28 -8 146.56 -8 152 C-10.64 152 -13.28 152 -16 152 C-16 133.52 -16 115.04 -16 96 C-13.36 96 -10.72 96 -8 96 C-8 93.36 -8 90.72 -8 88 C-13.28 88 -18.56 88 -24 88 C-24 85.36 -24 82.72 -24 80 C-29.28 80 -34.56 80 -40 80 C-40 69.44 -40 58.88 -40 48 C-42.64 48 -45.28 48 -48 48 C-48 42.72 -48 37.44 -48 32 C-45.36 32 -42.72 32 -40 32 C-40 34.64 -40 37.28 -40 40 C-29.44 40 -18.88 40 -8 40 C-8 42.64 -8 45.28 -8 48 C-5.36 48 -2.72 48 0 48 C0 50.64 0 53.28 0 56 C2.64 56 5.28 56 8 56 C8 53.36 8 50.72 8 48 C10.64 48 13.28 48 16 48 C16 45.36 16 42.72 16 40 C13.36 40 10.72 40 8 40 C8 37.36 8 34.72 8 32 C5.36 32 2.72 32 0 32 C0 21.44 0 10.88 0 0 Z " fill="#000080" transform="translate(240,58)"/>
<path d="M0 0 C2.64 0 5.28 0 8 0 C8 31.68 8 63.36 8 96 C10.64 96 13.28 96 16 96 C16 90.72 16 85.44 16 80 C23.92 80 31.84 80 40 80 C40 87.92 40 95.84 40 104 C34.72 104 29.44 104 24 104 C24 106.64 24 109.28 24 112 C18.72 112 13.44 112 8 112 C8 114.64 8 117.28 8 120 C2.72 120 -2.56 120 -8 120 C-8 122.64 -8 125.28 -8 128 C-13.28 128 -18.56 128 -24 128 C-24 130.64 -24 133.28 -24 136 C-42.48 136 -60.96 136 -80 136 C-80 133.36 -80 130.72 -80 128 C-66.8 128 -53.6 128 -40 128 C-40 125.36 -40 122.72 -40 120 C-37.36 120 -34.72 120 -32 120 C-32 85.68 -32 51.36 -32 16 C-29.36 16 -26.72 16 -24 16 C-24 47.68 -24 79.36 -24 112 C-21.36 112 -18.72 112 -16 112 C-16 77.68 -16 43.36 -16 8 C-13.36 8 -10.72 8 -8 8 C-8 39.68 -8 71.36 -8 104 C-5.36 104 -2.72 104 0 104 C0 69.68 0 35.36 0 0 Z " fill="#C0C0C0" transform="translate(176,58)"/>
<path d="M0 0 C2.64 0 5.28 0 8 0 C8 2.64 8 5.28 8 8 C18.56 8 29.12 8 40 8 C40 10.64 40 13.28 40 16 C42.64 16 45.28 16 48 16 C48 18.64 48 21.28 48 24 C50.64 24 53.28 24 56 24 C56 26.64 56 29.28 56 32 C53.36 32 50.72 32 48 32 C48 37.28 48 42.56 48 48 C45.36 48 42.72 48 40 48 C40 50.64 40 53.28 40 56 C34.72 56 29.44 56 24 56 C24 53.36 24 50.72 24 48 C18.72 48 13.44 48 8 48 C8 37.44 8 26.88 8 16 C5.36 16 2.72 16 0 16 C0 10.72 0 5.44 0 0 Z " fill="#0000FF" transform="translate(192,90)"/>
<path d="M0 0 C2.64 0 5.28 0 8 0 C8 5.28 8 10.56 8 16 C10.64 16 13.28 16 16 16 C16 21.28 16 26.56 16 32 C18.64 32 21.28 32 24 32 C24 53.12 24 74.24 24 96 C21.36 96 18.72 96 16 96 C16 85.44 16 74.88 16 64 C13.36 64 10.72 64 8 64 C8 58.72 8 53.44 8 48 C10.64 48 13.28 48 16 48 C16 45.36 16 42.72 16 40 C13.36 40 10.72 40 8 40 C8 37.36 8 34.72 8 32 C5.36 32 2.72 32 0 32 C0 21.44 0 10.88 0 0 Z " fill="#000000" transform="translate(240,58)"/>
<path d="M0 0 C2.64 0 5.28 0 8 0 C8 5.28 8 10.56 8 16 C10.64 16 13.28 16 16 16 C16 18.64 16 21.28 16 24 C13.36 24 10.72 24 8 24 C8 31.92 8 39.84 8 48 C10.64 48 13.28 48 16 48 C16 58.56 16 69.12 16 80 C13.36 80 10.72 80 8 80 C8 85.28 8 90.56 8 96 C5.36 96 2.72 96 0 96 C0 64.32 0 32.64 0 0 Z " fill="#000000" transform="translate(184,58)"/>
<path d="M0 0 C2.64 0 5.28 0 8 0 C8 13.2 8 26.4 8 40 C10.64 40 13.28 40 16 40 C16 42.64 16 45.28 16 48 C18.64 48 21.28 48 24 48 C24 50.64 24 53.28 24 56 C21.36 56 18.72 56 16 56 C16 58.64 16 61.28 16 64 C13.36 64 10.72 64 8 64 C8 61.36 8 58.72 8 56 C5.36 56 2.72 56 0 56 C0 50.72 0 45.44 0 40 C-2.64 40 -5.28 40 -8 40 C-8 37.36 -8 34.72 -8 32 C-5.36 32 -2.72 32 0 32 C0 29.36 0 26.72 0 24 C-2.64 24 -5.28 24 -8 24 C-8 18.72 -8 13.44 -8 8 C-5.36 8 -2.72 8 0 8 C0 5.36 0 2.72 0 0 Z " fill="#008000" transform="translate(232,50)"/>
<path d="M0 0 C2.64 0 5.28 0 8 0 C8 31.68 8 63.36 8 96 C5.36 96 2.72 96 0 96 C0 64.32 0 32.64 0 0 Z " fill="#000000" transform="translate(152,74)"/>
<path d="M0 0 C2.64 0 5.28 0 8 0 C8 31.68 8 63.36 8 96 C5.36 96 2.72 96 0 96 C0 64.32 0 32.64 0 0 Z " fill="#000000" transform="translate(168,66)"/>
<path d="M0 0 C15.84 0 31.68 0 48 0 C48 2.64 48 5.28 48 8 C40.08 8 32.16 8 24 8 C24 10.64 24 13.28 24 16 C18.72 16 13.44 16 8 16 C8 18.64 8 21.28 8 24 C2.72 24 -2.56 24 -8 24 C-8 18.72 -8 13.44 -8 8 C-5.36 8 -2.72 8 0 8 C0 5.36 0 2.72 0 0 Z " fill="#008080" transform="translate(152,18)"/>
<path d="M0 0 C21.12 0 42.24 0 64 0 C64 2.64 64 5.28 64 8 C53.44 8 42.88 8 32 8 C32 10.64 32 13.28 32 16 C29.36 16 26.72 16 24 16 C24 13.36 24 10.72 24 8 C21.36 8 18.72 8 16 8 C16 10.64 16 13.28 16 16 C8.08 16 0.16 16 -8 16 C-8 13.36 -8 10.72 -8 8 C-5.36 8 -2.72 8 0 8 C0 5.36 0 2.72 0 0 Z " fill="#808080" transform="translate(120,10)"/>
<path d="M0 0 C5.28 0 10.56 0 16 0 C16 2.64 16 5.28 16 8 C13.36 8 10.72 8 8 8 C8 26.48 8 44.96 8 64 C10.64 64 13.28 64 16 64 C16 66.64 16 69.28 16 72 C10.72 72 5.44 72 0 72 C0 48.24 0 24.48 0 0 Z " fill="#808080" transform="translate(8,138)"/>
<path d="M0 0 C2.64 0 5.28 0 8 0 C8 2.64 8 5.28 8 8 C13.28 8 18.56 8 24 8 C24 18.56 24 29.12 24 40 C21.36 40 18.72 40 16 40 C16 37.36 16 34.72 16 32 C10.72 32 5.44 32 0 32 C0 21.44 0 10.88 0 0 Z " fill="#FF0000" transform="translate(72,42)"/>
<path d="M0 0 C2.64 0 5.28 0 8 0 C8 23.76 8 47.52 8 72 C5.36 72 2.72 72 0 72 C0 48.24 0 24.48 0 0 Z " fill="#0000FF" transform="translate(104,90)"/>
<path d="M0 0 C2.64 0 5.28 0 8 0 C8 10.56 8 21.12 8 32 C10.64 32 13.28 32 16 32 C16 34.64 16 37.28 16 40 C13.36 40 10.72 40 8 40 C8 45.28 8 50.56 8 56 C5.36 56 2.72 56 0 56 C0 37.52 0 19.04 0 0 Z " fill="#000000" transform="translate(224,154)"/>
<path d="M0 0 C2.64 0 5.28 0 8 0 C8 21.12 8 42.24 8 64 C5.36 64 2.72 64 0 64 C0 42.88 0 21.76 0 0 Z " fill="#0000FF" transform="translate(120,106)"/>
<path d="M0 0 C2.64 0 5.28 0 8 0 C8 5.28 8 10.56 8 16 C10.64 16 13.28 16 16 16 C16 23.92 16 31.84 16 40 C13.36 40 10.72 40 8 40 C8 37.36 8 34.72 8 32 C5.36 32 2.72 32 0 32 C0 21.44 0 10.88 0 0 Z " fill="#000000" transform="translate(240,58)"/>
<path d="M0 0 C2.64 0 5.28 0 8 0 C8 7.92 8 15.84 8 24 C2.72 24 -2.56 24 -8 24 C-8 21.36 -8 18.72 -8 16 C-13.28 16 -18.56 16 -24 16 C-24 13.36 -24 10.72 -24 8 C-16.08 8 -8.16 8 0 8 C0 5.36 0 2.72 0 0 Z " fill="#808080" transform="translate(136,18)"/>
<path d="M0 0 C10.56 0 21.12 0 32 0 C32 2.64 32 5.28 32 8 C26.72 8 21.44 8 16 8 C16 10.64 16 13.28 16 16 C10.72 16 5.44 16 0 16 C0 10.72 0 5.44 0 0 Z " fill="#FFFFFF" transform="translate(24,130)"/>
<path d="M0 0 C2.64 0 5.28 0 8 0 C8 10.56 8 21.12 8 32 C5.36 32 2.72 32 0 32 C0 29.36 0 26.72 0 24 C-2.64 24 -5.28 24 -8 24 C-8 18.72 -8 13.44 -8 8 C-5.36 8 -2.72 8 0 8 C0 5.36 0 2.72 0 0 Z " fill="#008000" transform="translate(232,50)"/>
<path d="M0 0 C13.2 0 26.4 0 40 0 C40 2.64 40 5.28 40 8 C26.8 8 13.6 8 0 8 C0 5.36 0 2.72 0 0 Z " fill="#C0C0C0" transform="translate(96,186)"/>
<path d="M0 0 C2.64 0 5.28 0 8 0 C8 13.2 8 26.4 8 40 C5.36 40 2.72 40 0 40 C0 26.8 0 13.6 0 0 Z " fill="#0000FF" transform="translate(72,154)"/>
<path d="M0 0 C5.28 0 10.56 0 16 0 C16 5.28 16 10.56 16 16 C10.72 16 5.44 16 0 16 C0 10.72 0 5.44 0 0 Z " fill="#FFFFFF" transform="translate(200,146)"/>
<path d="M0 0 C5.28 0 10.56 0 16 0 C16 2.64 16 5.28 16 8 C13.36 8 10.72 8 8 8 C8 13.28 8 18.56 8 24 C5.36 24 2.72 24 0 24 C0 16.08 0 8.16 0 0 Z " fill="#000080" transform="translate(200,106)"/>
<path d="M0 0 C2.64 0 5.28 0 8 0 C8 10.56 8 21.12 8 32 C5.36 32 2.72 32 0 32 C0 21.44 0 10.88 0 0 Z " fill="#008000" transform="translate(192,106)"/>
<path d="M0 0 C5.28 0 10.56 0 16 0 C16 5.28 16 10.56 16 16 C13.36 16 10.72 16 8 16 C8 13.36 8 10.72 8 8 C5.36 8 2.72 8 0 8 C0 5.36 0 2.72 0 0 Z " fill="#FFFFFF" transform="translate(24,154)"/>
<path d="M0 0 C5.28 0 10.56 0 16 0 C16 2.64 16 5.28 16 8 C13.36 8 10.72 8 8 8 C8 10.64 8 13.28 8 16 C5.36 16 2.72 16 0 16 C0 10.72 0 5.44 0 0 Z " fill="#000080" transform="translate(232,114)"/>
<path d="M0 0 C2.64 0 5.28 0 8 0 C8 7.92 8 15.84 8 24 C5.36 24 2.72 24 0 24 C0 16.08 0 8.16 0 0 Z " fill="#000000" transform="translate(240,58)"/>
<path d="M0 0 C2.64 0 5.28 0 8 0 C8 5.28 8 10.56 8 16 C2.72 16 -2.56 16 -8 16 C-8 13.36 -8 10.72 -8 8 C-5.36 8 -2.72 8 0 8 C0 5.36 0 2.72 0 0 Z " fill="#000080" transform="translate(232,50)"/>
<path d="M0 0 C5.28 0 10.56 0 16 0 C16 2.64 16 5.28 16 8 C10.72 8 5.44 8 0 8 C0 5.36 0 2.72 0 0 Z " fill="#000000" transform="translate(120,258)"/>
<path d="M0 0 C5.28 0 10.56 0 16 0 C16 2.64 16 5.28 16 8 C10.72 8 5.44 8 0 8 C0 5.36 0 2.72 0 0 Z " fill="#000000" transform="translate(136,250)"/>
<path d="M0 0 C5.28 0 10.56 0 16 0 C16 2.64 16 5.28 16 8 C10.72 8 5.44 8 0 8 C0 5.36 0 2.72 0 0 Z " fill="#000000" transform="translate(104,250)"/>
<path d="M0 0 C5.28 0 10.56 0 16 0 C16 2.64 16 5.28 16 8 C10.72 8 5.44 8 0 8 C0 5.36 0 2.72 0 0 Z " fill="#000000" transform="translate(152,242)"/>
<path d="M0 0 C5.28 0 10.56 0 16 0 C16 2.64 16 5.28 16 8 C10.72 8 5.44 8 0 8 C0 5.36 0 2.72 0 0 Z " fill="#000000" transform="translate(88,242)"/>
<path d="M0 0 C5.28 0 10.56 0 16 0 C16 2.64 16 5.28 16 8 C10.72 8 5.44 8 0 8 C0 5.36 0 2.72 0 0 Z " fill="#000000" transform="translate(168,234)"/>
<path d="M0 0 C5.28 0 10.56 0 16 0 C16 2.64 16 5.28 16 8 C10.72 8 5.44 8 0 8 C0 5.36 0 2.72 0 0 Z " fill="#000000" transform="translate(72,234)"/>
<path d="M0 0 C5.28 0 10.56 0 16 0 C16 2.64 16 5.28 16 8 C10.72 8 5.44 8 0 8 C0 5.36 0 2.72 0 0 Z " fill="#000000" transform="translate(184,226)"/>
<path d="M0 0 C5.28 0 10.56 0 16 0 C16 2.64 16 5.28 16 8 C10.72 8 5.44 8 0 8 C0 5.36 0 2.72 0 0 Z " fill="#000000" transform="translate(56,226)"/>
<path d="M0 0 C5.28 0 10.56 0 16 0 C16 2.64 16 5.28 16 8 C10.72 8 5.44 8 0 8 C0 5.36 0 2.72 0 0 Z " fill="#000000" transform="translate(200,218)"/>
<path d="M0 0 C5.28 0 10.56 0 16 0 C16 2.64 16 5.28 16 8 C10.72 8 5.44 8 0 8 C0 5.36 0 2.72 0 0 Z " fill="#000000" transform="translate(40,218)"/>
<path d="M0 0 C5.28 0 10.56 0 16 0 C16 2.64 16 5.28 16 8 C10.72 8 5.44 8 0 8 C0 5.36 0 2.72 0 0 Z " fill="#FFFFFF" transform="translate(72,210)"/>
<path d="M0 0 C5.28 0 10.56 0 16 0 C16 2.64 16 5.28 16 8 C10.72 8 5.44 8 0 8 C0 5.36 0 2.72 0 0 Z " fill="#000000" transform="translate(24,210)"/>
<path d="M0 0 C5.28 0 10.56 0 16 0 C16 2.64 16 5.28 16 8 C10.72 8 5.44 8 0 8 C0 5.36 0 2.72 0 0 Z " fill="#FFFFFF" transform="translate(56,202)"/>
<path d="M0 0 C5.28 0 10.56 0 16 0 C16 2.64 16 5.28 16 8 C10.72 8 5.44 8 0 8 C0 5.36 0 2.72 0 0 Z " fill="#FFFFFF" transform="translate(136,186)"/>
<path d="M0 0 C2.64 0 5.28 0 8 0 C8 5.28 8 10.56 8 16 C5.36 16 2.72 16 0 16 C0 10.72 0 5.44 0 0 Z " fill="#FFFFFF" transform="translate(48,186)"/>
<path d="M0 0 C5.28 0 10.56 0 16 0 C16 2.64 16 5.28 16 8 C10.72 8 5.44 8 0 8 C0 5.36 0 2.72 0 0 Z " fill="#FFFFFF" transform="translate(152,178)"/>
<path d="M0 0 C2.64 0 5.28 0 8 0 C8 5.28 8 10.56 8 16 C5.36 16 2.72 16 0 16 C0 10.72 0 5.44 0 0 Z " fill="#000000" transform="translate(240,170)"/>
<path d="M0 0 C5.28 0 10.56 0 16 0 C16 2.64 16 5.28 16 8 C10.72 8 5.44 8 0 8 C0 5.36 0 2.72 0 0 Z " fill="#FFFFFF" transform="translate(168,170)"/>
<path d="M0 0 C2.64 0 5.28 0 8 0 C8 5.28 8 10.56 8 16 C5.36 16 2.72 16 0 16 C0 10.72 0 5.44 0 0 Z " fill="#FFFFFF" transform="translate(40,170)"/>
<path d="M0 0 C5.28 0 10.56 0 16 0 C16 2.64 16 5.28 16 8 C10.72 8 5.44 8 0 8 C0 5.36 0 2.72 0 0 Z " fill="#FFFFFF" transform="translate(184,162)"/>
<path d="M0 0 C2.64 0 5.28 0 8 0 C8 5.28 8 10.56 8 16 C5.36 16 2.72 16 0 16 C0 10.72 0 5.44 0 0 Z " fill="#000000" transform="translate(248,154)"/>
<path d="M0 0 C5.28 0 10.56 0 16 0 C16 2.64 16 5.28 16 8 C10.72 8 5.44 8 0 8 C0 5.36 0 2.72 0 0 Z " fill="#808080" transform="translate(200,138)"/>
<path d="M0 0 C5.28 0 10.56 0 16 0 C16 2.64 16 5.28 16 8 C10.72 8 5.44 8 0 8 C0 5.36 0 2.72 0 0 Z " fill="#FFFFFF" transform="translate(24,138)"/>
<path d="M0 0 C5.28 0 10.56 0 16 0 C16 2.64 16 5.28 16 8 C10.72 8 5.44 8 0 8 C0 5.36 0 2.72 0 0 Z " fill="#808080" transform="translate(24,130)"/>
<path d="M0 0 C2.64 0 5.28 0 8 0 C8 5.28 8 10.56 8 16 C5.36 16 2.72 16 0 16 C0 10.72 0 5.44 0 0 Z " fill="#C0C0C0" transform="translate(48,106)"/>
<path d="M0 0 C2.64 0 5.28 0 8 0 C8 5.28 8 10.56 8 16 C5.36 16 2.72 16 0 16 C0 10.72 0 5.44 0 0 Z " fill="#000080" transform="translate(192,90)"/>
<path d="M0 0 C5.28 0 10.56 0 16 0 C16 2.64 16 5.28 16 8 C10.72 8 5.44 8 0 8 C0 5.36 0 2.72 0 0 Z " fill="#808080" transform="translate(144,66)"/>
<path d="M0 0 C5.28 0 10.56 0 16 0 C16 2.64 16 5.28 16 8 C10.72 8 5.44 8 0 8 C0 5.36 0 2.72 0 0 Z " fill="#C0C0C0" transform="translate(128,66)"/>
<path d="M0 0 C5.28 0 10.56 0 16 0 C16 2.64 16 5.28 16 8 C10.72 8 5.44 8 0 8 C0 5.36 0 2.72 0 0 Z " fill="#808080" transform="translate(160,58)"/>
<path d="M0 0 C5.28 0 10.56 0 16 0 C16 2.64 16 5.28 16 8 C10.72 8 5.44 8 0 8 C0 5.36 0 2.72 0 0 Z " fill="#C0C0C0" transform="translate(144,58)"/>
<path d="M0 0 C5.28 0 10.56 0 16 0 C16 2.64 16 5.28 16 8 C10.72 8 5.44 8 0 8 C0 5.36 0 2.72 0 0 Z " fill="#808080" transform="translate(128,58)"/>
<path d="M0 0 C5.28 0 10.56 0 16 0 C16 2.64 16 5.28 16 8 C10.72 8 5.44 8 0 8 C0 5.36 0 2.72 0 0 Z " fill="#C0C0C0" transform="translate(112,58)"/>
<path d="M0 0 C5.28 0 10.56 0 16 0 C16 2.64 16 5.28 16 8 C10.72 8 5.44 8 0 8 C0 5.36 0 2.72 0 0 Z " fill="#808080" transform="translate(176,50)"/>
<path d="M0 0 C5.28 0 10.56 0 16 0 C16 2.64 16 5.28 16 8 C10.72 8 5.44 8 0 8 C0 5.36 0 2.72 0 0 Z " fill="#C0C0C0" transform="translate(160,50)"/>
<path d="M0 0 C5.28 0 10.56 0 16 0 C16 2.64 16 5.28 16 8 C10.72 8 5.44 8 0 8 C0 5.36 0 2.72 0 0 Z " fill="#808080" transform="translate(144,50)"/>
<path d="M0 0 C5.28 0 10.56 0 16 0 C16 2.64 16 5.28 16 8 C10.72 8 5.44 8 0 8 C0 5.36 0 2.72 0 0 Z " fill="#C0C0C0" transform="translate(128,50)"/>
<path d="M0 0 C5.28 0 10.56 0 16 0 C16 2.64 16 5.28 16 8 C10.72 8 5.44 8 0 8 C0 5.36 0 2.72 0 0 Z " fill="#808080" transform="translate(112,50)"/>
<path d="M0 0 C5.28 0 10.56 0 16 0 C16 2.64 16 5.28 16 8 C10.72 8 5.44 8 0 8 C0 5.36 0 2.72 0 0 Z " fill="#C0C0C0" transform="translate(96,50)"/>
<path d="M0 0 C2.64 0 5.28 0 8 0 C8 5.28 8 10.56 8 16 C5.36 16 2.72 16 0 16 C0 10.72 0 5.44 0 0 Z " fill="#800000" transform="translate(72,42)"/>
<path d="M0 0 C5.28 0 10.56 0 16 0 C16 2.64 16 5.28 16 8 C10.72 8 5.44 8 0 8 C0 5.36 0 2.72 0 0 Z " fill="#808080" transform="translate(160,42)"/>
<path d="M0 0 C5.28 0 10.56 0 16 0 C16 2.64 16 5.28 16 8 C10.72 8 5.44 8 0 8 C0 5.36 0 2.72 0 0 Z " fill="#C0C0C0" transform="translate(144,42)"/>
<path d="M0 0 C5.28 0 10.56 0 16 0 C16 2.64 16 5.28 16 8 C10.72 8 5.44 8 0 8 C0 5.36 0 2.72 0 0 Z " fill="#808080" transform="translate(128,42)"/>
<path d="M0 0 C5.28 0 10.56 0 16 0 C16 2.64 16 5.28 16 8 C10.72 8 5.44 8 0 8 C0 5.36 0 2.72 0 0 Z " fill="#C0C0C0" transform="translate(112,42)"/>
<path d="M0 0 C5.28 0 10.56 0 16 0 C16 2.64 16 5.28 16 8 C10.72 8 5.44 8 0 8 C0 5.36 0 2.72 0 0 Z " fill="#808080" transform="translate(96,42)"/>
<path d="M0 0 C5.28 0 10.56 0 16 0 C16 2.64 16 5.28 16 8 C10.72 8 5.44 8 0 8 C0 5.36 0 2.72 0 0 Z " fill="#C0C0C0" transform="translate(80,42)"/>
<path d="M0 0 C5.28 0 10.56 0 16 0 C16 2.64 16 5.28 16 8 C10.72 8 5.44 8 0 8 C0 5.36 0 2.72 0 0 Z " fill="#808080" transform="translate(144,34)"/>
<path d="M0 0 C5.28 0 10.56 0 16 0 C16 2.64 16 5.28 16 8 C10.72 8 5.44 8 0 8 C0 5.36 0 2.72 0 0 Z " fill="#C0C0C0" transform="translate(128,34)"/>
<path d="M0 0 C5.28 0 10.56 0 16 0 C16 2.64 16 5.28 16 8 C10.72 8 5.44 8 0 8 C0 5.36 0 2.72 0 0 Z " fill="#808080" transform="translate(112,34)"/>
<path d="M0 0 C5.28 0 10.56 0 16 0 C16 2.64 16 5.28 16 8 C10.72 8 5.44 8 0 8 C0 5.36 0 2.72 0 0 Z " fill="#C0C0C0" transform="translate(96,34)"/>
<path d="M0 0 C5.28 0 10.56 0 16 0 C16 2.64 16 5.28 16 8 C10.72 8 5.44 8 0 8 C0 5.36 0 2.72 0 0 Z " fill="#808080" transform="translate(80,34)"/>
<path d="M0 0 C5.28 0 10.56 0 16 0 C16 2.64 16 5.28 16 8 C10.72 8 5.44 8 0 8 C0 5.36 0 2.72 0 0 Z " fill="#C0C0C0" transform="translate(64,34)"/>
<path d="M0 0 C5.28 0 10.56 0 16 0 C16 2.64 16 5.28 16 8 C10.72 8 5.44 8 0 8 C0 5.36 0 2.72 0 0 Z " fill="#808080" transform="translate(200,26)"/>
<path d="M0 0 C5.28 0 10.56 0 16 0 C16 2.64 16 5.28 16 8 C10.72 8 5.44 8 0 8 C0 5.36 0 2.72 0 0 Z " fill="#008000" transform="translate(144,26)"/>
<path d="M0 0 C5.28 0 10.56 0 16 0 C16 2.64 16 5.28 16 8 C10.72 8 5.44 8 0 8 C0 5.36 0 2.72 0 0 Z " fill="#C0C0C0" transform="translate(112,26)"/>
<path d="M0 0 C5.28 0 10.56 0 16 0 C16 2.64 16 5.28 16 8 C10.72 8 5.44 8 0 8 C0 5.36 0 2.72 0 0 Z " fill="#808080" transform="translate(96,26)"/>
<path d="M0 0 C5.28 0 10.56 0 16 0 C16 2.64 16 5.28 16 8 C10.72 8 5.44 8 0 8 C0 5.36 0 2.72 0 0 Z " fill="#C0C0C0" transform="translate(80,26)"/>
<path d="M0 0 C5.28 0 10.56 0 16 0 C16 2.64 16 5.28 16 8 C10.72 8 5.44 8 0 8 C0 5.36 0 2.72 0 0 Z " fill="#808080" transform="translate(184,18)"/>
<path d="M0 0 C5.28 0 10.56 0 16 0 C16 2.64 16 5.28 16 8 C10.72 8 5.44 8 0 8 C0 5.36 0 2.72 0 0 Z " fill="#C0C0C0" transform="translate(96,18)"/>
<path d="M0 0 C2.64 0 5.28 0 8 0 C8 2.64 8 5.28 8 8 C5.36 8 2.72 8 0 8 C0 5.36 0 2.72 0 0 Z " fill="#000000" transform="translate(216,210)"/>
<path d="M0 0 C2.64 0 5.28 0 8 0 C8 2.64 8 5.28 8 8 C5.36 8 2.72 8 0 8 C0 5.36 0 2.72 0 0 Z " fill="#000000" transform="translate(16,202)"/>
<path d="M0 0 C2.64 0 5.28 0 8 0 C8 2.64 8 5.28 8 8 C5.36 8 2.72 8 0 8 C0 5.36 0 2.72 0 0 Z " fill="#C0C0C0" transform="translate(88,194)"/>
<path d="M0 0 C2.64 0 5.28 0 8 0 C8 2.64 8 5.28 8 8 C5.36 8 2.72 8 0 8 C0 5.36 0 2.72 0 0 Z " fill="#FFFFFF" transform="translate(16,146)"/>
<path d="M0 0 C2.64 0 5.28 0 8 0 C8 2.64 8 5.28 8 8 C5.36 8 2.72 8 0 8 C0 5.36 0 2.72 0 0 Z " fill="#FFFFFF" transform="translate(192,138)"/>
<path d="M0 0 C2.64 0 5.28 0 8 0 C8 2.64 8 5.28 8 8 C5.36 8 2.72 8 0 8 C0 5.36 0 2.72 0 0 Z " fill="#000080" transform="translate(224,130)"/>
<path d="M0 0 C2.64 0 5.28 0 8 0 C8 2.64 8 5.28 8 8 C5.36 8 2.72 8 0 8 C0 5.36 0 2.72 0 0 Z " fill="#808080" transform="translate(192,130)"/>
<path d="M0 0 C2.64 0 5.28 0 8 0 C8 2.64 8 5.28 8 8 C5.36 8 2.72 8 0 8 C0 5.36 0 2.72 0 0 Z " fill="#008000" transform="translate(240,122)"/>
<path d="M0 0 C2.64 0 5.28 0 8 0 C8 2.64 8 5.28 8 8 C5.36 8 2.72 8 0 8 C0 5.36 0 2.72 0 0 Z " fill="#008080" transform="translate(192,122)"/>
<path d="M0 0 C2.64 0 5.28 0 8 0 C8 2.64 8 5.28 8 8 C5.36 8 2.72 8 0 8 C0 5.36 0 2.72 0 0 Z " fill="#008000" transform="translate(248,114)"/>
<path d="M0 0 C2.64 0 5.28 0 8 0 C8 2.64 8 5.28 8 8 C5.36 8 2.72 8 0 8 C0 5.36 0 2.72 0 0 Z " fill="#0000FF" transform="translate(240,114)"/>
<path d="M0 0 C2.64 0 5.28 0 8 0 C8 2.64 8 5.28 8 8 C5.36 8 2.72 8 0 8 C0 5.36 0 2.72 0 0 Z " fill="#000080" transform="translate(248,106)"/>
<path d="M0 0 C2.64 0 5.28 0 8 0 C8 2.64 8 5.28 8 8 C5.36 8 2.72 8 0 8 C0 5.36 0 2.72 0 0 Z " fill="#008000" transform="translate(240,106)"/>
<path d="M0 0 C2.64 0 5.28 0 8 0 C8 2.64 8 5.28 8 8 C5.36 8 2.72 8 0 8 C0 5.36 0 2.72 0 0 Z " fill="#008000" transform="translate(248,98)"/>
<path d="M0 0 C2.64 0 5.28 0 8 0 C8 2.64 8 5.28 8 8 C5.36 8 2.72 8 0 8 C0 5.36 0 2.72 0 0 Z " fill="#000080" transform="translate(240,98)"/>
<path d="M0 0 C2.64 0 5.28 0 8 0 C8 2.64 8 5.28 8 8 C5.36 8 2.72 8 0 8 C0 5.36 0 2.72 0 0 Z " fill="#008000" transform="translate(232,98)"/>
<path d="M0 0 C2.64 0 5.28 0 8 0 C8 2.64 8 5.28 8 8 C5.36 8 2.72 8 0 8 C0 5.36 0 2.72 0 0 Z " fill="#008080" transform="translate(48,98)"/>
<path d="M0 0 C2.64 0 5.28 0 8 0 C8 2.64 8 5.28 8 8 C5.36 8 2.72 8 0 8 C0 5.36 0 2.72 0 0 Z " fill="#000080" transform="translate(248,90)"/>
<path d="M0 0 C2.64 0 5.28 0 8 0 C8 2.64 8 5.28 8 8 C5.36 8 2.72 8 0 8 C0 5.36 0 2.72 0 0 Z " fill="#008000" transform="translate(240,90)"/>
<path d="M0 0 C2.64 0 5.28 0 8 0 C8 2.64 8 5.28 8 8 C5.36 8 2.72 8 0 8 C0 5.36 0 2.72 0 0 Z " fill="#000080" transform="translate(232,90)"/>
<path d="M0 0 C2.64 0 5.28 0 8 0 C8 2.64 8 5.28 8 8 C5.36 8 2.72 8 0 8 C0 5.36 0 2.72 0 0 Z " fill="#008080" transform="translate(200,90)"/>
<path d="M0 0 C2.64 0 5.28 0 8 0 C8 2.64 8 5.28 8 8 C5.36 8 2.72 8 0 8 C0 5.36 0 2.72 0 0 Z " fill="#0000FF" transform="translate(192,90)"/>
<path d="M0 0 C2.64 0 5.28 0 8 0 C8 2.64 8 5.28 8 8 C5.36 8 2.72 8 0 8 C0 5.36 0 2.72 0 0 Z " fill="#FFFFFF" transform="translate(48,90)"/>
<path d="M0 0 C2.64 0 5.28 0 8 0 C8 2.64 8 5.28 8 8 C5.36 8 2.72 8 0 8 C0 5.36 0 2.72 0 0 Z " fill="#000080" transform="translate(240,82)"/>
<path d="M0 0 C2.64 0 5.28 0 8 0 C8 2.64 8 5.28 8 8 C5.36 8 2.72 8 0 8 C0 5.36 0 2.72 0 0 Z " fill="#008080" transform="translate(224,82)"/>
<path d="M0 0 C2.64 0 5.28 0 8 0 C8 2.64 8 5.28 8 8 C5.36 8 2.72 8 0 8 C0 5.36 0 2.72 0 0 Z " fill="#008000" transform="translate(240,74)"/>
<path d="M0 0 C2.64 0 5.28 0 8 0 C8 2.64 8 5.28 8 8 C5.36 8 2.72 8 0 8 C0 5.36 0 2.72 0 0 Z " fill="#000080" transform="translate(232,74)"/>
<path d="M0 0 C2.64 0 5.28 0 8 0 C8 2.64 8 5.28 8 8 C5.36 8 2.72 8 0 8 C0 5.36 0 2.72 0 0 Z " fill="#0000FF" transform="translate(192,74)"/>
<path d="M0 0 C2.64 0 5.28 0 8 0 C8 2.64 8 5.28 8 8 C5.36 8 2.72 8 0 8 C0 5.36 0 2.72 0 0 Z " fill="#800000" transform="translate(88,74)"/>
<path d="M0 0 C2.64 0 5.28 0 8 0 C8 2.64 8 5.28 8 8 C5.36 8 2.72 8 0 8 C0 5.36 0 2.72 0 0 Z " fill="#000000" transform="translate(224,66)"/>
<path d="M0 0 C2.64 0 5.28 0 8 0 C8 2.64 8 5.28 8 8 C5.36 8 2.72 8 0 8 C0 5.36 0 2.72 0 0 Z " fill="#008080" transform="translate(192,66)"/>
<path d="M0 0 C2.64 0 5.28 0 8 0 C8 2.64 8 5.28 8 8 C5.36 8 2.72 8 0 8 C0 5.36 0 2.72 0 0 Z " fill="#800000" transform="translate(80,66)"/>
<path d="M0 0 C2.64 0 5.28 0 8 0 C8 2.64 8 5.28 8 8 C5.36 8 2.72 8 0 8 C0 5.36 0 2.72 0 0 Z " fill="#008080" transform="translate(224,58)"/>
<path d="M0 0 C2.64 0 5.28 0 8 0 C8 2.64 8 5.28 8 8 C5.36 8 2.72 8 0 8 C0 5.36 0 2.72 0 0 Z " fill="#808080" transform="translate(232,50)"/>
<path d="M0 0 C2.64 0 5.28 0 8 0 C8 2.64 8 5.28 8 8 C5.36 8 2.72 8 0 8 C0 5.36 0 2.72 0 0 Z " fill="#000000" transform="translate(224,50)"/>
<path d="M0 0 C2.64 0 5.28 0 8 0 C8 2.64 8 5.28 8 8 C5.36 8 2.72 8 0 8 C0 5.36 0 2.72 0 0 Z " fill="#800000" transform="translate(88,50)"/>
<path d="M0 0 C2.64 0 5.28 0 8 0 C8 2.64 8 5.28 8 8 C5.36 8 2.72 8 0 8 C0 5.36 0 2.72 0 0 Z " fill="#808080" transform="translate(224,42)"/>
<path d="M0 0 C2.64 0 5.28 0 8 0 C8 2.64 8 5.28 8 8 C5.36 8 2.72 8 0 8 C0 5.36 0 2.72 0 0 Z " fill="#FF0000" transform="translate(72,42)"/>
<path d="M0 0 C2.64 0 5.28 0 8 0 C8 2.64 8 5.28 8 8 C5.36 8 2.72 8 0 8 C0 5.36 0 2.72 0 0 Z " fill="#000000" transform="translate(216,34)"/>
<path d="M0 0 C2.64 0 5.28 0 8 0 C8 2.64 8 5.28 8 8 C5.36 8 2.72 8 0 8 C0 5.36 0 2.72 0 0 Z " fill="#0000FF" transform="translate(168,26)"/>
<path d="M0 0 C2.64 0 5.28 0 8 0 C8 2.64 8 5.28 8 8 C5.36 8 2.72 8 0 8 C0 5.36 0 2.72 0 0 Z " fill="#0000FF" transform="translate(152,18)"/>
<path d="M0 0 C2.64 0 5.28 0 8 0 C8 2.64 8 5.28 8 8 C5.36 8 2.72 8 0 8 C0 5.36 0 2.72 0 0 Z " fill="#C0C0C0" transform="translate(136,18)"/>
<path d="M0 0 C2.64 0 5.28 0 8 0 C8 2.64 8 5.28 8 8 C5.36 8 2.72 8 0 8 C0 5.36 0 2.72 0 0 Z " fill="#008080" transform="translate(128,18)"/>
<path d="M0 0 C2.64 0 5.28 0 8 0 C8 2.64 8 5.28 8 8 C5.36 8 2.72 8 0 8 C0 5.36 0 2.72 0 0 Z " fill="#FFFFFF" transform="translate(112,10)"/>
</svg>
