<svg xmlns="http://www.w3.org/2000/svg" xmlns:xlink="http://www.w3.org/1999/xlink" width="500" zoomAndPan="magnify" viewBox="0 0 375 374.999991" height="500" preserveAspectRatio="xMidYMid meet" version="1.2"><defs><clipPath id="634f138ac6"><path d="M 34.347656 37.5 L 48.085938 37.5 L 48.085938 343.804688 L 34.347656 343.804688 Z M 34.347656 37.5 "/></clipPath><clipPath id="7e4465f7fe"><path d="M 326.914062 38.066406 L 340.652344 38.066406 L 340.652344 344.371094 L 326.914062 344.371094 Z M 326.914062 38.066406 "/></clipPath><clipPath id="064aa38c1f"><path d="M 34.339844 330.628906 L 340.644531 330.628906 L 340.644531 344.367188 L 34.339844 344.367188 Z M 34.339844 330.628906 "/></clipPath><clipPath id="04c4e62210"><path d="M 34.34375 38.0625 L 340.644531 38.0625 L 340.644531 83.320312 L 34.34375 83.320312 Z M 34.34375 38.0625 "/></clipPath></defs><g id="5d976108c6"><rect x="0" width="375" y="0" height="374.999991" style="fill:#ffffff;fill-opacity:1;stroke:none;"/><rect x="0" width="375" y="0" height="374.999991" style="fill:#ffffff;fill-opacity:1;stroke:none;"/><rect x="0" width="375" y="0" height="374.999991" style="fill:#c0c0c0;fill-opacity:1;stroke:none;"/><g clip-rule="nonzero" clip-path="url(#634f138ac6)"><path style=" stroke:none;fill-rule:nonzero;fill:#000000;fill-opacity:1;" d="M 34.347656 37.5 L 48.085938 37.5 L 48.085938 343.789062 L 34.347656 343.789062 Z M 34.347656 37.5 "/></g><g clip-rule="nonzero" clip-path="url(#7e4465f7fe)"><path style=" stroke:none;fill-rule:nonzero;fill:#000000;fill-opacity:1;" d="M 326.914062 38.066406 L 340.652344 38.066406 L 340.652344 344.355469 L 326.914062 344.355469 Z M 326.914062 38.066406 "/></g><g clip-rule="nonzero" clip-path="url(#064aa38c1f)"><path style=" stroke:none;fill-rule:nonzero;fill:#000000;fill-opacity:1;" d="M 340.644531 330.628906 L 340.644531 344.367188 L 34.355469 344.367188 L 34.355469 330.628906 Z M 340.644531 330.628906 "/></g><g clip-rule="nonzero" clip-path="url(#04c4e62210)"><path style=" stroke:none;fill-rule:nonzero;fill:#000000;fill-opacity:1;" d="M 340.644531 38.0625 L 340.644531 83.320312 L 34.265625 83.320312 L 34.265625 38.0625 Z M 340.644531 38.0625 "/></g></g></svg>